<?xml version="1.0" standalone="no"?>
<!DOCTYPE svg PUBLIC "-//W3C//DTD SVG 20010904//EN"
 "http://www.w3.org/TR/2001/REC-SVG-20010904/DTD/svg10.dtd">
<svg version="1.0" xmlns="http://www.w3.org/2000/svg"
 width="400.000000pt" height="400.000000pt" viewBox="0 0 400.000000 400.000000"
 preserveAspectRatio="xMidYMid meet">
<metadata>
Created by potrace 1.11, written by Peter Selinger 2001-2013
</metadata>
<g transform="translate(0.000000,400.000000) scale(0.100000,-0.100000)"
fill="#000000" stroke="none">
<path d="M0 2000 l0 -2000 2000 0 2000 0 0 2000 0 2000 -2000 0 -2000 0 0
-2000z m2610 1101 l0 -310 48 -6 c66 -9 72 -12 72 -35 0 -19 -6 -20 -195 -20
-189 0 -195 1 -195 20 0 23 6 26 73 35 l47 6 0 249 0 249 -57 -20 c-69 -23
-65 -24 -61 3 5 32 180 137 231 138 l37 0 0 -309z m-914 -28 c76 -25 147 -73
179 -121 14 -21 32 -68 41 -105 23 -92 9 -192 -40 -291 -43 -88 -112 -159
-348 -358 -98 -82 -180 -153 -183 -159 -4 -5 110 -9 299 -9 l306 0 0 -105 0
-105 -400 0 -400 0 0 88 1 87 192 201 c260 273 308 358 311 557 1 84 -2 98
-29 152 -40 80 -91 109 -182 102 -38 -3 -74 -12 -95 -25 -32 -20 -35 -27 -53
-117 l-18 -95 -44 0 -43 0 0 144 0 145 53 10 c124 26 168 30 277 27 78 -3 134
-10 176 -23z m1084 -553 l0 -50 -260 0 -260 0 0 50 0 50 260 0 260 0 0 -50z
m-195 -271 c86 -24 135 -86 135 -172 0 -100 -39 -158 -197 -292 l-117 -100
167 -3 167 -2 0 -55 0 -55 -220 0 -220 0 0 44 c0 43 4 49 110 160 120 127 147
169 160 253 18 110 -21 183 -98 183 -48 0 -79 -22 -87 -63 -12 -59 -16 -67
-36 -67 -17 0 -19 8 -19 80 l0 79 38 6 c20 4 42 8 47 10 23 8 133 4 170 -6z"/>
</g>
</svg>
